<?xml version="1.0" encoding="UTF-8"?>
<svg xmlns="http://www.w3.org/2000/svg" xmlns:xlink="http://www.w3.org/1999/xlink" width="40px" height="40px" viewBox="0 0 40 40" version="1.1">
<defs>
<linearGradient id="linear0" gradientUnits="userSpaceOnUse" x1="-10.767" y1="4.675" x2="-11.233" y2="-22.851" gradientTransform="matrix(1.4782,0,0,1.428558,35.383333,32.816668)">
<stop offset="0" style="stop-color:rgb(89.019608%,89.019608%,89.019608%);stop-opacity:1;"/>
<stop offset="1" style="stop-color:rgb(98.823529%,97.647059%,97.647059%);stop-opacity:1;"/>
</linearGradient>
<clipPath id="clip1">
  <rect x="0" y="0" width="40" height="40"/>
</clipPath>
<g id="surface5" clip-path="url(#clip1)">
<path style=" stroke:none;fill-rule:nonzero;fill:url(#linear0);" d="M 2.570312 0 L 37.429688 0 C 38.847656 0 40 1.152344 40 2.570312 L 40 37.429688 C 40 38.847656 38.847656 40 37.429688 40 L 2.570312 40 C 1.152344 40 0 38.847656 0 37.429688 L 0 2.570312 C 0 1.152344 1.152344 0 2.570312 0 Z M 2.570312 0 "/>
</g>
<clipPath id="clip2">
  <path d="M 6 5 L 34 5 L 34 35 L 6 35 Z M 6 5 "/>
</clipPath>
<clipPath id="clip3">
  <path d="M 45.066406 20 C 45.066406 33.847656 33.835938 45.0625 20.003906 45.0625 C 6.167969 45.0625 -5.0625 33.847656 -5.0625 20 C -5.0625 6.152344 6.167969 -5.0625 20.003906 -5.0625 C 33.835938 -5.0625 45.066406 6.152344 45.066406 20 "/>
</clipPath>
<linearGradient id="linear1" gradientUnits="userSpaceOnUse" x1="23.261999" y1="46" x2="22.868999" y2="0.558" gradientTransform="matrix(0.833336,0,0,0.833336,-0.000074839,-0.00039573)">
<stop offset="0" style="stop-color:rgb(100%,26.27451%,22.745098%);stop-opacity:1;"/>
<stop offset="1" style="stop-color:rgb(100%,58.039216%,21.176471%);stop-opacity:1;"/>
</linearGradient>
</defs>
<g id="surface1">
<use xlink:href="#surface5"/>
<g clip-path="url(#clip2)" clip-rule="nonzero">
<g clip-path="url(#clip3)" clip-rule="nonzero">
<path style=" stroke:none;fill-rule:nonzero;fill:url(#linear1);" d="M 16.273438 5.832031 C 14.957031 5.832031 13.898438 6.90625 13.898438 8.230469 C 13.898438 9.152344 14.421875 9.945312 15.179688 10.34375 L 14.414062 15.808594 C 14.296875 15.800781 14.175781 15.789062 14.054688 15.789062 C 10.109375 15.789062 6.917969 19.007812 6.917969 22.980469 C 6.917969 26.953125 10.117188 30.175781 14.054688 30.175781 C 15.863281 30.175781 17.503906 29.492188 18.761719 28.378906 L 19.488281 31.261719 C 19.078125 31.550781 18.8125 32.027344 18.8125 32.570312 C 18.8125 33.453125 19.519531 34.167969 20.394531 34.167969 C 21.273438 34.167969 21.976562 33.453125 21.976562 32.570312 C 21.976562 31.683594 21.273438 30.96875 20.394531 30.96875 C 20.316406 30.96875 20.242188 30.980469 20.167969 30.992188 L 19.359375 27.78125 C 20.492188 26.507812 21.1875 24.828125 21.1875 22.980469 C 21.1875 22.9375 21.183594 22.898438 21.179688 22.855469 L 25.914062 18.929688 C 26.632812 19.929688 27.796875 20.582031 29.113281 20.582031 C 31.308594 20.582031 33.078125 18.792969 33.078125 16.585938 C 33.078125 14.382812 31.304688 12.59375 29.113281 12.59375 C 26.921875 12.59375 25.152344 14.382812 25.152344 16.585938 C 25.152344 17.167969 25.28125 17.714844 25.5 18.214844 L 21.09375 21.867188 C 20.871094 20.421875 20.226562 19.121094 19.28125 18.097656 L 19.792969 16.703125 C 20.042969 16.816406 20.316406 16.886719 20.605469 16.886719 C 21.699219 16.886719 22.585938 15.992188 22.585938 14.890625 C 22.585938 13.785156 21.695312 12.894531 20.605469 12.894531 C 19.507812 12.894531 18.621094 13.785156 18.621094 14.890625 C 18.621094 15.382812 18.808594 15.828125 19.101562 16.179688 L 18.628906 17.464844 C 17.671875 16.65625 16.496094 16.105469 15.210938 15.894531 L 15.949219 10.59375 C 16.054688 10.609375 16.160156 10.628906 16.269531 10.628906 C 17.585938 10.628906 18.648438 9.554688 18.648438 8.230469 C 18.648438 6.90625 17.585938 5.835938 16.269531 5.835938 "/>
</g>
</g>
</g>
</svg>
