<svg width="16" height="16" viewBox="0 0 23 23" fill="none" xmlns="http://www.w3.org/2000/svg">
    <g clip-path="url(#clip0_8804_23237)">
        <mask id="mask0_8804_23237" style="mask-type:luminance" maskUnits="userSpaceOnUse" x="2" y="2" width="19"
              height="19">
            <path d="M2.875 2.875H20.125V20.125H2.875V2.875Z" fill="white"/>
        </mask>
        <g mask="url(#mask0_8804_23237)">
            <mask id="mask1_8804_23237" style="mask-type:luminance" maskUnits="userSpaceOnUse" x="-3" y="-3" width="29"
                  height="29">
                <path d="M25.9143 11.5C25.9143 19.4624 19.4568 25.9143 11.5 25.9143C3.54321 25.9143 -2.90869 19.4624 -2.90869 11.5C-2.90869 3.5376 3.54321 -2.91431 11.5 -2.91431C19.4568 -2.91431 25.9143 3.5376 25.9143 11.5Z"
                      fill="white"/>
            </mask>
            <g mask="url(#mask1_8804_23237)">
                <path d="M9.35522 3.35229C8.60278 3.35229 7.99072 3.96997 7.99072 4.73364C7.99072 5.26147 8.29395 5.71631 8.72632 5.94653L8.28833 9.09107C8.22095 9.08545 8.15357 9.07983 8.08057 9.07983C5.81201 9.07983 3.98145 10.9272 3.98145 13.2126C3.98145 15.498 5.81763 17.3511 8.08057 17.3511C9.11939 17.3511 10.0684 16.958 10.7871 16.3179L11.2083 17.9744C10.9724 18.1428 10.8152 18.418 10.8152 18.7268C10.8152 19.2378 11.2251 19.6477 11.7249 19.6477C12.2302 19.6477 12.6401 19.2378 12.6401 18.7268C12.6401 18.2214 12.2302 17.8059 11.7249 17.8059C11.6855 17.8059 11.6406 17.8171 11.5957 17.8228L11.1296 15.9753C11.781 15.2397 12.1853 14.2739 12.1853 13.2126C12.1853 13.1902 12.1797 13.1677 12.1797 13.1453L14.9031 10.8879C15.313 11.4607 15.9812 11.8369 16.7393 11.8369C18.0027 11.8369 19.019 10.8093 19.019 9.53467C19.019 8.27124 18.0027 7.24365 16.7393 7.24365C15.4814 7.24365 14.4595 8.27124 14.4595 9.53467C14.4595 9.87158 14.5381 10.186 14.6616 10.4724L12.1292 12.5725C12 11.7415 11.6294 10.9946 11.0847 10.405L11.3823 9.60767C11.5227 9.66943 11.6799 9.70874 11.8484 9.70874C12.4773 9.70874 12.9883 9.19775 12.9883 8.56323C12.9883 7.92871 12.4773 7.41211 11.8484 7.41211C11.2195 7.41211 10.7085 7.92871 10.7085 8.56323C10.7085 8.84399 10.8152 9.10229 10.9836 9.30444L10.7141 10.04C10.1582 9.57959 9.48437 9.25952 8.74316 9.13599L9.16992 6.09253C9.23169 6.09815 9.29346 6.10938 9.35522 6.10938C10.1133 6.10938 10.7253 5.4917 10.7253 4.73364C10.7253 3.96997 10.1133 3.35229 9.35522 3.35229Z"
                      fill="url(#paint0_linear_8804_23237)"/>
            </g>
        </g>
        <path d="M20.313 17.1146C21.0267 17.4891 21.0267 18.5109 20.313 18.8854L15.2147 21.5613C14.5489 21.9108 13.75 21.4279 13.75 20.6759L13.75 15.3241C13.75 14.5721 14.5489 14.0892 15.2147 14.4387L20.313 17.1146Z"
              fill="#F2FCF3" stroke="#208A3C"/>
        <g filter="url(#filter0_d_8804_23237)">
            <path d="M11.6605 2.27273H14.2727L16.4886 7.67614H16.5909L18.8068 2.27273H21.419V11H19.3651V5.6392H19.2926L17.196 10.9446H15.8835L13.7869 5.60938H13.7145V11H11.6605V2.27273Z"
                  fill="black"/>
        </g>
    </g>
    <defs>
        <filter id="filter0_d_8804_23237" x="7.66064" y="2.27272" width="17.7583" height="16.7273"
                filterUnits="userSpaceOnUse" color-interpolation-filters="sRGB">
            <feFlood flood-opacity="0" result="BackgroundImageFix"/>
            <feColorMatrix in="SourceAlpha" type="matrix" values="0 0 0 0 0 0 0 0 0 0 0 0 0 0 0 0 0 0 127 0"
                           result="hardAlpha"/>
            <feOffset dy="4"/>
            <feGaussianBlur stdDeviation="2"/>
            <feComposite in2="hardAlpha" operator="out"/>
            <feColorMatrix type="matrix" values="0 0 0 0 0 0 0 0 0 0 0 0 0 0 0 0 0 0 0.25 0"/>
            <feBlend mode="normal" in2="BackgroundImageFix" result="effect1_dropShadow_8804_23237"/>
            <feBlend mode="normal" in="SourceGraphic" in2="effect1_dropShadow_8804_23237" result="shape"/>
        </filter>
        <linearGradient id="paint0_linear_8804_23237" x1="11.1466" y1="22.0415" x2="10.9583" y2="0.267149"
                        gradientUnits="userSpaceOnUse">
            <stop stop-color="#FF433A"/>
            <stop offset="1" stop-color="#FF9436"/>
        </linearGradient>
        <clipPath id="clip0_8804_23237">
            <rect width="23" height="23" fill="white"/>
        </clipPath>
    </defs>
</svg>
