<svg width="16" height="16" viewBox="0 0 23 23" fill="none" xmlns="http://www.w3.org/2000/svg">
    <g clip-path="url(#clip0_8804_23304)">
        <mask id="mask0_8804_23304" style="mask-type:luminance" maskUnits="userSpaceOnUse" x="2" y="2" width="19"
              height="19">
            <path d="M2.875 2.875H20.125V20.125H2.875V2.875Z" fill="white"/>
        </mask>
        <g mask="url(#mask0_8804_23304)">
            <mask id="mask1_8804_23304" style="mask-type:luminance" maskUnits="userSpaceOnUse" x="-3" y="-3" width="29"
                  height="29">
                <path d="M25.9143 11.5C25.9143 19.4624 19.4568 25.9143 11.5 25.9143C3.54321 25.9143 -2.90869 19.4624 -2.90869 11.5C-2.90869 3.5376 3.54321 -2.91431 11.5 -2.91431C19.4568 -2.91431 25.9143 3.5376 25.9143 11.5Z"
                      fill="white"/>
            </mask>
            <g mask="url(#mask1_8804_23304)">
                <path d="M9.35522 3.35229C8.60278 3.35229 7.99072 3.96997 7.99072 4.73364C7.99072 5.26147 8.29395 5.71631 8.72632 5.94653L8.28833 9.09107C8.22095 9.08545 8.15356 9.07983 8.08057 9.07983C5.81201 9.07983 3.98145 10.9272 3.98145 13.2126C3.98145 15.498 5.81763 17.3511 8.08057 17.3511C9.11939 17.3511 10.0684 16.958 10.7871 16.3179L11.2083 17.9744C10.9724 18.1428 10.8152 18.418 10.8152 18.7268C10.8152 19.2378 11.2251 19.6477 11.7249 19.6477C12.2302 19.6477 12.6401 19.2378 12.6401 18.7268C12.6401 18.2214 12.2302 17.8059 11.7249 17.8059C11.6855 17.8059 11.6406 17.8171 11.5957 17.8228L11.1296 15.9753C11.781 15.2397 12.1853 14.2739 12.1853 13.2126C12.1853 13.1902 12.1797 13.1677 12.1797 13.1453L14.9031 10.8879C15.313 11.4607 15.9812 11.8369 16.7393 11.8369C18.0027 11.8369 19.019 10.8093 19.019 9.53467C19.019 8.27124 18.0027 7.24365 16.7393 7.24365C15.4814 7.24365 14.4595 8.27124 14.4595 9.53467C14.4595 9.87158 14.5381 10.186 14.6616 10.4724L12.1292 12.5725C12 11.7415 11.6294 10.9946 11.0847 10.405L11.3823 9.60767C11.5227 9.66943 11.6799 9.70874 11.8484 9.70874C12.4773 9.70874 12.9883 9.19775 12.9883 8.56323C12.9883 7.92871 12.4773 7.41211 11.8484 7.41211C11.2195 7.41211 10.7085 7.92871 10.7085 8.56323C10.7085 8.84399 10.8152 9.10229 10.9836 9.30444L10.7141 10.04C10.1582 9.57959 9.48437 9.25952 8.74316 9.13599L9.16992 6.09253C9.23169 6.09815 9.29346 6.10938 9.35522 6.10938C10.1133 6.10938 10.7253 5.4917 10.7253 4.73364C10.7253 3.96997 10.1133 3.35229 9.35522 3.35229Z"
                      fill="url(#paint0_linear_8804_23304)"/>
            </g>
        </g>
        <path d="M20.0458 17.6558C20.6643 18.0487 20.6643 18.9513 20.0458 19.3442L15.4111 22.2876C14.7453 22.7104 13.875 22.2321 13.875 21.4434L13.875 15.5566C13.875 14.7679 14.7453 14.2896 15.4111 14.7124L20.0458 17.6558Z"
              fill="#253627" stroke="#57965C"/>
        <path d="M11.0179 6.43466H8.88725C8.85884 6.21591 8.8006 6.01847 8.71254 5.84233C8.62447 5.66619 8.50799 5.51562 8.3631 5.39062C8.21822 5.26562 8.04634 5.17045 7.84748 5.10511C7.65146 5.03693 7.43413 5.00284 7.19549 5.00284C6.77219 5.00284 6.40714 5.10653 6.10032 5.31392C5.79634 5.52131 5.56197 5.82102 5.39719 6.21307C5.23526 6.60511 5.1543 7.07955 5.1543 7.63636C5.1543 8.21591 5.23668 8.7017 5.40146 9.09375C5.56907 9.48295 5.80344 9.77699 6.10458 9.97585C6.40856 10.1719 6.76793 10.2699 7.18271 10.2699C7.41566 10.2699 7.62731 10.2401 7.81765 10.1804C8.01083 10.1207 8.17987 10.0341 8.32475 9.92045C8.47248 9.80398 8.59322 9.66335 8.68697 9.49858C8.78356 9.33097 8.85032 9.14205 8.88725 8.93182L11.0179 8.9446C10.981 9.33097 10.8688 9.71165 10.6813 10.0866C10.4966 10.4616 10.2424 10.804 9.9185 11.1136C9.59464 11.4205 9.19975 11.6648 8.73384 11.8466C8.27077 12.0284 7.73952 12.1193 7.14009 12.1193C6.35032 12.1193 5.64293 11.946 5.01793 11.5994C4.39577 11.25 3.9043 10.7415 3.5435 10.0739C3.18271 9.40625 3.00231 8.59375 3.00231 7.63636C3.00231 6.67614 3.18555 5.86222 3.55202 5.1946C3.9185 4.52699 4.41424 4.01989 5.03924 3.6733C5.66424 3.3267 6.36452 3.15341 7.14009 3.15341C7.6685 3.15341 8.15714 3.22727 8.606 3.375C9.05487 3.51989 9.44975 3.73295 9.79066 4.0142C10.1316 4.29261 10.4086 4.63494 10.6216 5.04119C10.8347 5.44744 10.9668 5.91193 11.0179 6.43466Z"
              fill="white"/>
        <path d="M18.4169 5.8892C18.3885 5.5767 18.2621 5.33381 18.0376 5.16051C17.8161 4.98438 17.4993 4.89631 17.0874 4.89631C16.8146 4.89631 16.5874 4.93182 16.4055 5.00284C16.2237 5.07386 16.0874 5.17188 15.9964 5.29688C15.9055 5.41903 15.8587 5.55966 15.8558 5.71875C15.8501 5.84943 15.8757 5.96449 15.9325 6.06392C15.9922 6.16335 16.0774 6.25142 16.1882 6.32812C16.3018 6.40199 16.4382 6.46733 16.5973 6.52415C16.7564 6.58097 16.9354 6.63068 17.1342 6.6733L17.8842 6.84375C18.3161 6.9375 18.6967 7.0625 19.0263 7.21875C19.3587 7.375 19.6371 7.56108 19.8615 7.77699C20.0888 7.9929 20.2607 8.24148 20.3771 8.52273C20.4936 8.80398 20.5533 9.11932 20.5561 9.46875C20.5533 10.0199 20.4141 10.4929 20.1385 10.8878C19.8629 11.2827 19.4666 11.5852 18.9496 11.7955C18.4354 12.0057 17.8146 12.1108 17.0874 12.1108C16.3572 12.1108 15.7209 12.0014 15.1783 11.7827C14.6357 11.5639 14.2138 11.2315 13.9126 10.7855C13.6115 10.3395 13.4567 9.77557 13.4482 9.09375H15.468C15.4851 9.375 15.5604 9.60938 15.6939 9.79688C15.8274 9.98438 16.0107 10.1264 16.2436 10.223C16.4794 10.3196 16.7521 10.3679 17.0618 10.3679C17.3459 10.3679 17.5874 10.3295 17.7862 10.2528C17.9879 10.1761 18.1428 10.0696 18.2507 9.93324C18.3587 9.79687 18.4141 9.64062 18.4169 9.46449C18.4141 9.29972 18.3629 9.15909 18.2635 9.04261C18.1641 8.9233 18.0107 8.82102 17.8033 8.7358C17.5987 8.64773 17.3374 8.56676 17.0192 8.4929L16.1072 8.27983C15.3516 8.10653 14.7564 7.8267 14.3217 7.44034C13.8871 7.05114 13.6712 6.52557 13.674 5.86364C13.6712 5.32386 13.8161 4.85085 14.1087 4.4446C14.4013 4.03835 14.8061 3.72159 15.3232 3.49432C15.8402 3.26705 16.4297 3.15341 17.0916 3.15341C17.7678 3.15341 18.3544 3.26847 18.8516 3.49858C19.3516 3.72585 19.7393 4.04545 20.0149 4.45739C20.2905 4.86932 20.4311 5.34659 20.4368 5.8892H18.4169Z"
              fill="white"/>
    </g>
    <defs>
        <linearGradient id="paint0_linear_8804_23304" x1="11.1466" y1="22.0415" x2="10.9583" y2="0.267149"
                        gradientUnits="userSpaceOnUse">
            <stop stop-color="#FF433A"/>
            <stop offset="1" stop-color="#FF9436"/>
        </linearGradient>
        <clipPath id="clip0_8804_23304">
            <rect width="23" height="23" fill="white"/>
        </clipPath>
    </defs>
</svg>
