<svg width="16" height="16" viewBox="0 0 23 23" fill="none" xmlns="http://www.w3.org/2000/svg">
    <g clip-path="url(#clip0_8804_23363)">
        <mask id="mask0_8804_23363" style="mask-type:luminance" maskUnits="userSpaceOnUse" x="2" y="2" width="19"
              height="19">
            <path d="M2.875 2.875H20.125V20.125H2.875V2.875Z" fill="white"/>
        </mask>
        <g mask="url(#mask0_8804_23363)">
            <mask id="mask1_8804_23363" style="mask-type:luminance" maskUnits="userSpaceOnUse" x="-3" y="-3" width="29"
                  height="29">
                <path d="M25.9143 11.5C25.9143 19.4624 19.4568 25.9143 11.5 25.9143C3.54321 25.9143 -2.90869 19.4624 -2.90869 11.5C-2.90869 3.5376 3.54321 -2.91431 11.5 -2.91431C19.4568 -2.91431 25.9143 3.5376 25.9143 11.5Z"
                      fill="white"/>
            </mask>
            <g mask="url(#mask1_8804_23363)">
                <path d="M9.35522 3.35229C8.60278 3.35229 7.99072 3.96997 7.99072 4.73364C7.99072 5.26147 8.29395 5.71631 8.72632 5.94653L8.28833 9.09107C8.22095 9.08545 8.15356 9.07983 8.08057 9.07983C5.81201 9.07983 3.98145 10.9272 3.98145 13.2126C3.98145 15.498 5.81763 17.3511 8.08057 17.3511C9.11939 17.3511 10.0684 16.958 10.7871 16.3179L11.2083 17.9744C10.9724 18.1428 10.8152 18.418 10.8152 18.7268C10.8152 19.2378 11.2251 19.6477 11.7249 19.6477C12.2302 19.6477 12.6401 19.2378 12.6401 18.7268C12.6401 18.2214 12.2302 17.8059 11.7249 17.8059C11.6855 17.8059 11.6406 17.8171 11.5957 17.8228L11.1296 15.9753C11.781 15.2397 12.1853 14.2739 12.1853 13.2126C12.1853 13.1902 12.1797 13.1677 12.1797 13.1453L14.9031 10.8879C15.313 11.4607 15.9812 11.8369 16.7393 11.8369C18.0027 11.8369 19.019 10.8093 19.019 9.53467C19.019 8.27124 18.0027 7.24365 16.7393 7.24365C15.4814 7.24365 14.4595 8.27124 14.4595 9.53467C14.4595 9.87158 14.5381 10.186 14.6616 10.4724L12.1292 12.5725C12 11.7415 11.6294 10.9946 11.0847 10.405L11.3823 9.60767C11.5227 9.66943 11.6799 9.70874 11.8484 9.70874C12.4773 9.70874 12.9883 9.19775 12.9883 8.56323C12.9883 7.92871 12.4773 7.41211 11.8484 7.41211C11.2195 7.41211 10.7085 7.92871 10.7085 8.56323C10.7085 8.84399 10.8152 9.10229 10.9836 9.30444L10.7141 10.04C10.1582 9.57959 9.48437 9.25952 8.74316 9.13599L9.16992 6.09253C9.23169 6.09815 9.29346 6.10938 9.35522 6.10938C10.1133 6.10938 10.7253 5.4917 10.7253 4.73364C10.7253 3.96997 10.1133 3.35229 9.35522 3.35229Z"
                      fill="url(#paint0_linear_8804_23363)"/>
            </g>
        </g>
        <rect x="13.875" y="13.875" width="7.25" height="7.25" rx="1.5" fill="#FFF7F7" stroke="#DB3B4B"/>
        <path d="M18.4169 4.8892C18.3885 4.5767 18.2621 4.33381 18.0376 4.16051C17.8161 3.98438 17.4993 3.89631 17.0874 3.89631C16.8146 3.89631 16.5874 3.93182 16.4055 4.00284C16.2237 4.07386 16.0874 4.17188 15.9964 4.29688C15.9055 4.41903 15.8587 4.55966 15.8558 4.71875C15.8501 4.84943 15.8757 4.96449 15.9325 5.06392C15.9922 5.16335 16.0774 5.25142 16.1882 5.32812C16.3018 5.40199 16.4382 5.46733 16.5973 5.52415C16.7564 5.58097 16.9354 5.63068 17.1342 5.6733L17.8842 5.84375C18.3161 5.9375 18.6967 6.0625 19.0263 6.21875C19.3587 6.375 19.6371 6.56108 19.8615 6.77699C20.0888 6.9929 20.2607 7.24148 20.3771 7.52273C20.4936 7.80398 20.5533 8.11932 20.5561 8.46875C20.5533 9.01989 20.4141 9.4929 20.1385 9.88778C19.8629 10.2827 19.4666 10.5852 18.9496 10.7955C18.4354 11.0057 17.8146 11.1108 17.0874 11.1108C16.3572 11.1108 15.7209 11.0014 15.1783 10.7827C14.6357 10.5639 14.2138 10.2315 13.9126 9.78551C13.6115 9.33949 13.4567 8.77557 13.4482 8.09375H15.468C15.4851 8.375 15.5604 8.60938 15.6939 8.79688C15.8274 8.98438 16.0107 9.12642 16.2436 9.22301C16.4794 9.3196 16.7521 9.3679 17.0618 9.3679C17.3459 9.3679 17.5874 9.32955 17.7862 9.25284C17.9879 9.17614 18.1428 9.0696 18.2507 8.93324C18.3587 8.79687 18.4141 8.64062 18.4169 8.46449C18.4141 8.29972 18.3629 8.15909 18.2635 8.04261C18.1641 7.9233 18.0107 7.82102 17.8033 7.7358C17.5987 7.64773 17.3374 7.56676 17.0192 7.4929L16.1072 7.27983C15.3516 7.10653 14.7564 6.8267 14.3217 6.44034C13.8871 6.05114 13.6712 5.52557 13.674 4.86364C13.6712 4.32386 13.8161 3.85085 14.1087 3.4446C14.4013 3.03835 14.8061 2.72159 15.3232 2.49432C15.8402 2.26705 16.4297 2.15341 17.0916 2.15341C17.7678 2.15341 18.3544 2.26847 18.8516 2.49858C19.3516 2.72585 19.7393 3.04545 20.0149 3.45739C20.2905 3.86932 20.4311 4.34659 20.4368 4.8892H18.4169Z"
              fill="black"/>
    </g>
    <defs>
        <linearGradient id="paint0_linear_8804_23363" x1="11.1466" y1="22.0415" x2="10.9583" y2="0.267149"
                        gradientUnits="userSpaceOnUse">
            <stop stop-color="#FF433A"/>
            <stop offset="1" stop-color="#FF9436"/>
        </linearGradient>
        <clipPath id="clip0_8804_23363">
            <rect width="23" height="23" fill="white"/>
        </clipPath>
    </defs>
</svg>
