<svg width="16" height="16" viewBox="0 0 23 23" fill="none" xmlns="http://www.w3.org/2000/svg">
    <g clip-path="url(#clip0_8804_23188)">
        <mask id="mask0_8804_23188" style="mask-type:luminance" maskUnits="userSpaceOnUse" x="2" y="2" width="19"
              height="19">
            <path d="M2.875 2.875H20.125V20.125H2.875V2.875Z" fill="white"/>
        </mask>
        <g mask="url(#mask0_8804_23188)">
            <mask id="mask1_8804_23188" style="mask-type:luminance" maskUnits="userSpaceOnUse" x="-3" y="-3" width="29"
                  height="29">
                <path d="M25.9143 11.5C25.9143 19.4624 19.4568 25.9143 11.5 25.9143C3.54321 25.9143 -2.90869 19.4624 -2.90869 11.5C-2.90869 3.5376 3.54321 -2.91431 11.5 -2.91431C19.4568 -2.91431 25.9143 3.5376 25.9143 11.5Z"
                      fill="white"/>
            </mask>
            <g mask="url(#mask1_8804_23188)">
                <path d="M9.35522 3.35229C8.60278 3.35229 7.99072 3.96997 7.99072 4.73364C7.99072 5.26147 8.29395 5.71631 8.72632 5.94653L8.28833 9.09107C8.22095 9.08545 8.15357 9.07983 8.08057 9.07983C5.81201 9.07983 3.98145 10.9272 3.98145 13.2126C3.98145 15.498 5.81763 17.3511 8.08057 17.3511C9.11939 17.3511 10.0684 16.958 10.7871 16.3179L11.2083 17.9744C10.9724 18.1428 10.8152 18.418 10.8152 18.7268C10.8152 19.2378 11.2251 19.6477 11.7249 19.6477C12.2302 19.6477 12.6401 19.2378 12.6401 18.7268C12.6401 18.2214 12.2302 17.8059 11.7249 17.8059C11.6855 17.8059 11.6406 17.8171 11.5957 17.8228L11.1296 15.9753C11.781 15.2397 12.1853 14.2739 12.1853 13.2126C12.1853 13.1902 12.1797 13.1677 12.1797 13.1453L14.9031 10.8879C15.313 11.4607 15.9812 11.8369 16.7393 11.8369C18.0027 11.8369 19.019 10.8093 19.019 9.53467C19.019 8.27124 18.0027 7.24365 16.7393 7.24365C15.4814 7.24365 14.4595 8.27124 14.4595 9.53467C14.4595 9.87158 14.5381 10.186 14.6616 10.4724L12.1292 12.5725C12 11.7415 11.6294 10.9946 11.0847 10.405L11.3823 9.60767C11.5227 9.66943 11.6799 9.70874 11.8484 9.70874C12.4773 9.70874 12.9883 9.19775 12.9883 8.56323C12.9883 7.92871 12.4773 7.41211 11.8484 7.41211C11.2195 7.41211 10.7085 7.92871 10.7085 8.56323C10.7085 8.84399 10.8152 9.10229 10.9836 9.30444L10.7141 10.04C10.1582 9.57959 9.48437 9.25952 8.74316 9.13599L9.16992 6.09253C9.23169 6.09815 9.29346 6.10938 9.35522 6.10938C10.1133 6.10938 10.7253 5.4917 10.7253 4.73364C10.7253 3.96997 10.1133 3.35229 9.35522 3.35229Z"
                      fill="url(#paint0_linear_8804_23188)"/>
            </g>
        </g>
        <path d="M20.313 17.1146C21.0267 17.4891 21.0267 18.5109 20.313 18.8854L15.2147 21.5613C14.5489 21.9108 13.75 21.4279 13.75 20.6759L13.75 15.3241C13.75 14.5721 14.5489 14.0892 15.2147 14.4387L20.313 17.1146Z"
              fill="#F2FCF3" stroke="#208A3C"/>
        <path d="M20.5824 5.43466H18.4517C18.4233 5.21591 18.3651 5.01847 18.277 4.84233C18.1889 4.66619 18.0724 4.51562 17.9276 4.39062C17.7827 4.26562 17.6108 4.17045 17.4119 4.10511C17.2159 4.03693 16.9986 4.00284 16.7599 4.00284C16.3366 4.00284 15.9716 4.10653 15.6648 4.31392C15.3608 4.52131 15.1264 4.82102 14.9616 5.21307C14.7997 5.60511 14.7188 6.07955 14.7188 6.63636C14.7188 7.21591 14.8011 7.7017 14.9659 8.09375C15.1335 8.48295 15.3679 8.77699 15.669 8.97585C15.973 9.17187 16.3324 9.26989 16.7472 9.26989C16.9801 9.26989 17.1918 9.24006 17.3821 9.1804C17.5753 9.12074 17.7443 9.03409 17.8892 8.92045C18.0369 8.80398 18.1577 8.66335 18.2514 8.49858C18.348 8.33097 18.4148 8.14205 18.4517 7.93182L20.5824 7.9446C20.5455 8.33097 20.4332 8.71165 20.2457 9.08665C20.0611 9.46165 19.8068 9.80398 19.483 10.1136C19.1591 10.4205 18.7642 10.6648 18.2983 10.8466C17.8352 11.0284 17.304 11.1193 16.7045 11.1193C15.9148 11.1193 15.2074 10.946 14.5824 10.5994C13.9602 10.25 13.4688 9.74148 13.108 9.07386C12.7472 8.40625 12.5668 7.59375 12.5668 6.63636C12.5668 5.67614 12.75 4.86222 13.1165 4.1946C13.483 3.52699 13.9787 3.01989 14.6037 2.6733C15.2287 2.3267 15.929 2.15341 16.7045 2.15341C17.233 2.15341 17.7216 2.22727 18.1705 2.375C18.6193 2.51989 19.0142 2.73295 19.3551 3.0142C19.696 3.29261 19.973 3.63494 20.1861 4.04119C20.3991 4.44744 20.5312 4.91193 20.5824 5.43466Z"
              fill="black"/>
    </g>
    <defs>
        <linearGradient id="paint0_linear_8804_23188" x1="11.1466" y1="22.0415" x2="10.9583" y2="0.267149"
                        gradientUnits="userSpaceOnUse">
            <stop stop-color="#FF433A"/>
            <stop offset="1" stop-color="#FF9436"/>
        </linearGradient>
        <clipPath id="clip0_8804_23188">
            <rect width="23" height="23" fill="white"/>
        </clipPath>
    </defs>
</svg>
