<?xml version="1.0" encoding="UTF-8"?>
<svg xmlns="http://www.w3.org/2000/svg" xmlns:xlink="http://www.w3.org/1999/xlink" width="16px" height="16px" viewBox="0 0 16 16" version="1.1">
<defs>
<linearGradient id="linear0" gradientUnits="userSpaceOnUse" x1="-10.767" y1="4.675" x2="-11.233" y2="-22.851" gradientTransform="matrix(0.59128,0,0,0.571423,14.153333,13.126667)">
<stop offset="0" style="stop-color:rgb(89.019608%,89.019608%,89.019608%);stop-opacity:1;"/>
<stop offset="1" style="stop-color:rgb(98.823529%,97.647059%,97.647059%);stop-opacity:1;"/>
</linearGradient>
<clipPath id="clip1">
  <rect x="0" y="0" width="16" height="16"/>
</clipPath>
<g id="surface5" clip-path="url(#clip1)">
<path style=" stroke:none;fill-rule:nonzero;fill:url(#linear0);" d="M 1.027344 0 L 14.972656 0 C 15.539062 0 16 0.460938 16 1.027344 L 16 14.972656 C 16 15.539062 15.539062 16 14.972656 16 L 1.027344 16 C 0.460938 16 0 15.539062 0 14.972656 L 0 1.027344 C 0 0.460938 0.460938 0 1.027344 0 Z M 1.027344 0 "/>
</g>
<clipPath id="clip2">
  <path d="M 2 2 L 14 2 L 14 14 L 2 14 Z M 2 2 "/>
</clipPath>
<clipPath id="clip3">
  <path d="M 18.027344 8 C 18.027344 13.539062 13.535156 18.027344 8 18.027344 C 2.464844 18.027344 -2.023438 13.539062 -2.023438 8 C -2.023438 2.460938 2.464844 -2.027344 8 -2.027344 C 13.535156 -2.027344 18.027344 2.460938 18.027344 8 "/>
</clipPath>
<linearGradient id="linear1" gradientUnits="userSpaceOnUse" x1="23.261999" y1="46" x2="22.868999" y2="0.558" gradientTransform="matrix(0.333335,0,0,0.333335,-0.0000299356,-0.000158292)">
<stop offset="0" style="stop-color:rgb(100%,26.27451%,22.745098%);stop-opacity:1;"/>
<stop offset="1" style="stop-color:rgb(100%,58.039216%,21.176471%);stop-opacity:1;"/>
</linearGradient>
</defs>
<g id="surface1">
<use xlink:href="#surface5"/>
<g clip-path="url(#clip2)" clip-rule="nonzero">
<g clip-path="url(#clip3)" clip-rule="nonzero">
<path style=" stroke:none;fill-rule:nonzero;fill:url(#linear1);" d="M 6.507812 2.332031 C 5.984375 2.332031 5.558594 2.761719 5.558594 3.292969 C 5.558594 3.660156 5.769531 3.976562 6.070312 4.136719 L 5.765625 6.324219 C 5.71875 6.320312 5.671875 6.316406 5.621094 6.316406 C 4.042969 6.316406 2.769531 7.601562 2.769531 9.191406 C 2.769531 10.78125 4.046875 12.070312 5.621094 12.070312 C 6.34375 12.070312 7.003906 11.796875 7.503906 11.351562 L 7.796875 12.503906 C 7.632812 12.621094 7.523438 12.8125 7.523438 13.027344 C 7.523438 13.382812 7.808594 13.667969 8.15625 13.667969 C 8.507812 13.667969 8.792969 13.382812 8.792969 13.027344 C 8.792969 12.675781 8.507812 12.386719 8.15625 12.386719 C 8.128906 12.386719 8.097656 12.394531 8.066406 12.398438 L 7.742188 11.113281 C 8.195312 10.601562 8.476562 9.929688 8.476562 9.191406 C 8.476562 9.175781 8.472656 9.160156 8.472656 9.144531 L 10.367188 7.574219 C 10.652344 7.972656 11.117188 8.234375 11.644531 8.234375 C 12.523438 8.234375 13.230469 7.519531 13.230469 6.632812 C 13.230469 5.753906 12.523438 5.039062 11.644531 5.039062 C 10.769531 5.039062 10.058594 5.753906 10.058594 6.632812 C 10.058594 6.867188 10.113281 7.085938 10.199219 7.285156 L 8.4375 8.746094 C 8.347656 8.167969 8.089844 7.648438 7.710938 7.238281 L 7.917969 6.683594 C 8.015625 6.726562 8.125 6.753906 8.242188 6.753906 C 8.679688 6.753906 9.035156 6.398438 9.035156 5.957031 C 9.035156 5.515625 8.679688 5.15625 8.242188 5.15625 C 7.804688 5.15625 7.449219 5.515625 7.449219 5.957031 C 7.449219 6.152344 7.523438 6.332031 7.640625 6.472656 L 7.453125 6.984375 C 7.066406 6.664062 6.597656 6.441406 6.082031 6.355469 L 6.378906 4.238281 C 6.421875 4.242188 6.464844 4.25 6.507812 4.25 C 7.035156 4.25 7.460938 3.820312 7.460938 3.292969 C 7.460938 2.761719 7.035156 2.332031 6.507812 2.332031 "/>
</g>
</g>
</g>
</svg>
