<svg width="16" height="16" viewBox="0 0 40 40" fill="none" xmlns="http://www.w3.org/2000/svg">
    <g clip-path="url(#clip0_8805_10502)">
        <mask id="mask0_8805_10502" style="mask-type:luminance" maskUnits="userSpaceOnUse" x="5" y="5" width="30"
              height="30">
            <path d="M5 5H35V35H5V5Z" fill="white"/>
        </mask>
        <g mask="url(#mask0_8805_10502)">
            <mask id="mask1_8805_10502" style="mask-type:luminance" maskUnits="userSpaceOnUse" x="-6" y="-6" width="52"
                  height="52">
                <path d="M45.0684 20C45.0684 33.8477 33.8379 45.0684 20 45.0684C6.16211 45.0684 -5.05859 33.8477 -5.05859 20C-5.05859 6.15234 6.16211 -5.06836 20 -5.06836C33.8379 -5.06836 45.0684 6.15234 45.0684 20Z"
                      fill="white"/>
            </mask>
            <g mask="url(#mask1_8805_10502)">
                <path d="M16.2695 5.83008C14.9609 5.83008 13.8965 6.9043 13.8965 8.23242C13.8965 9.15039 14.4238 9.94141 15.1758 10.3418L14.4141 15.8105C14.2969 15.8008 14.1797 15.791 14.0527 15.791C10.1074 15.791 6.92383 19.0039 6.92383 22.9785C6.92383 26.9531 10.1172 30.1758 14.0527 30.1758C15.8594 30.1758 17.5098 29.4922 18.7598 28.3789L19.4922 31.2598C19.082 31.5527 18.8086 32.0312 18.8086 32.5684C18.8086 33.457 19.5215 34.1699 20.3906 34.1699C21.2695 34.1699 21.9824 33.457 21.9824 32.5684C21.9824 31.6895 21.2695 30.9668 20.3906 30.9668C20.3223 30.9668 20.2441 30.9863 20.166 30.9961L19.3555 27.7832C20.4883 26.5039 21.1914 24.8242 21.1914 22.9785C21.1914 22.9395 21.1816 22.9004 21.1816 22.8613L25.918 18.9355C26.6309 19.9316 27.793 20.5859 29.1113 20.5859C31.3086 20.5859 33.0762 18.7988 33.0762 16.582C33.0762 14.3848 31.3086 12.5977 29.1113 12.5977C26.9238 12.5977 25.1465 14.3848 25.1465 16.582C25.1465 17.168 25.2832 17.7148 25.498 18.2129L21.0938 21.8652C20.8691 20.4199 20.2246 19.1211 19.2773 18.0957L19.7949 16.709C20.0391 16.8164 20.3125 16.8848 20.6055 16.8848C21.6992 16.8848 22.5879 15.9961 22.5879 14.8926C22.5879 13.7891 21.6992 12.8906 20.6055 12.8906C19.5117 12.8906 18.623 13.7891 18.623 14.8926C18.623 15.3809 18.8086 15.8301 19.1016 16.1816L18.6328 17.4609C17.666 16.6602 16.4941 16.1035 15.2051 15.8887L15.9473 10.5957C16.0547 10.6055 16.1621 10.625 16.2695 10.625C17.5879 10.625 18.6523 9.55078 18.6523 8.23242C18.6523 6.9043 17.5879 5.83008 16.2695 5.83008Z"
                      fill="url(#paint0_linear_8805_10502)"/>
            </g>
        </g>
        <g clip-path="url(#clip1_8805_10502)">
            <path d="M26 24V32C26 33.1046 26.8954 34 28 34H30V30C30 28.8954 30.8954 28 32 28H34V24C34 22.8954 33.1046 22 32 22H28C26.8954 22 26 22.8954 26 24Z"
                  fill="#EBECF0"/>
            <path d="M33.5 31C33.2239 31 33 31.2239 33 31.5C33 31.7761 33.2239 32 33.5 32H35.5C35.7761 32 36 31.7761 36 31.5C36 31.2239 35.7761 31 35.5 31H33.5Z"
                  fill="#6C707E"/>
            <path fill-rule="evenodd" clip-rule="evenodd"
                  d="M31 35V30C31 29.4477 31.4477 29 32 29H35.5858C35.851 29 36.1054 29.1054 36.2929 29.2929L37.7071 30.7071C37.8946 30.8946 38 31.149 38 31.4142V35C38 35.5523 37.5523 36 37 36H32C31.4477 36 31 35.5523 31 35ZM32 30V35H33V34C33 33.4477 33.4477 33 34 33H35C35.5523 33 36 33.4477 36 34V35H37V31.4142L35.5858 30L32 30ZM35 35H34V34H35V35Z"
                  fill="#6C707E"/>
            <path d="M28 22C26.8954 22 26 22.8954 26 24H23.5C23.2239 24 23 24.2239 23 24.5C23 24.7761 23.2239 25 23.5 25H26L26 24V32L26 31H23.5C23.2239 31 23 31.2239 23 31.5C23 31.7761 23.2239 32 23.5 32H26C26 33.1046 26.8954 34 28 34H30V33H28C27.4477 33 27 32.5523 27 32V24C27 23.4477 27.4477 23 28 23H32C32.5523 23 33 23.4477 33 24V28H34V25H36.5C36.7761 25 37 24.7761 37 24.5C37 24.2239 36.7761 24 36.5 24H34C34 22.8954 33.1046 22 32 22H28Z"
                  fill="#6C707E"/>
            <path d="M23.5 27.5C23.2239 27.5 23 27.7239 23 28C23 28.2761 23.2239 28.5 23.5 28.5H26V27.5H23.5Z"
                  fill="#6C707E"/>
        </g>
    </g>
    <defs>
        <linearGradient id="paint0_linear_8805_10502" x1="19.385" y1="38.3331" x2="19.0575" y2="0.464608"
                        gradientUnits="userSpaceOnUse">
            <stop stop-color="#FF433A"/>
            <stop offset="1" stop-color="#FF9436"/>
        </linearGradient>
        <clipPath id="clip0_8805_10502">
            <rect width="40" height="40" fill="white"/>
        </clipPath>
        <clipPath id="clip1_8805_10502">
            <rect width="16" height="16" fill="white" transform="translate(22 20)"/>
        </clipPath>
    </defs>
</svg>
