<svg width="16" height="16" viewBox="0 0 40 40" fill="none" xmlns="http://www.w3.org/2000/svg">
    <g clip-path="url(#clip0_8805_10347)">
        <mask id="mask0_8805_10347" style="mask-type:luminance" maskUnits="userSpaceOnUse" x="5" y="5" width="30"
              height="30">
            <path d="M5 5H35V35H5V5Z" fill="white"/>
        </mask>
        <g mask="url(#mask0_8805_10347)">
            <mask id="mask1_8805_10347" style="mask-type:luminance" maskUnits="userSpaceOnUse" x="-6" y="-6" width="52"
                  height="52">
                <path d="M45.0684 20C45.0684 33.8477 33.8379 45.0684 20 45.0684C6.16211 45.0684 -5.05859 33.8477 -5.05859 20C-5.05859 6.15234 6.16211 -5.06836 20 -5.06836C33.8379 -5.06836 45.0684 6.15234 45.0684 20Z"
                      fill="white"/>
            </mask>
            <g mask="url(#mask1_8805_10347)">
                <path d="M16.2695 5.83008C14.9609 5.83008 13.8965 6.9043 13.8965 8.23242C13.8965 9.15039 14.4238 9.94141 15.1758 10.3418L14.4141 15.8105C14.2969 15.8008 14.1797 15.791 14.0527 15.791C10.1074 15.791 6.92383 19.0039 6.92383 22.9785C6.92383 26.9531 10.1172 30.1758 14.0527 30.1758C15.8594 30.1758 17.5098 29.4922 18.7598 28.3789L19.4922 31.2598C19.082 31.5527 18.8086 32.0312 18.8086 32.5684C18.8086 33.457 19.5215 34.1699 20.3906 34.1699C21.2695 34.1699 21.9824 33.457 21.9824 32.5684C21.9824 31.6895 21.2695 30.9668 20.3906 30.9668C20.3223 30.9668 20.2441 30.9863 20.166 30.9961L19.3555 27.7832C20.4883 26.5039 21.1914 24.8242 21.1914 22.9785C21.1914 22.9395 21.1816 22.9004 21.1816 22.8613L25.918 18.9355C26.6309 19.9316 27.793 20.5859 29.1113 20.5859C31.3086 20.5859 33.0762 18.7988 33.0762 16.582C33.0762 14.3848 31.3086 12.5977 29.1113 12.5977C26.9238 12.5977 25.1465 14.3848 25.1465 16.582C25.1465 17.168 25.2832 17.7148 25.498 18.2129L21.0938 21.8652C20.8691 20.4199 20.2246 19.1211 19.2773 18.0957L19.7949 16.709C20.0391 16.8164 20.3125 16.8848 20.6055 16.8848C21.6992 16.8848 22.5879 15.9961 22.5879 14.8926C22.5879 13.7891 21.6992 12.8906 20.6055 12.8906C19.5117 12.8906 18.623 13.7891 18.623 14.8926C18.623 15.3809 18.8086 15.8301 19.1016 16.1816L18.6328 17.4609C17.666 16.6602 16.4941 16.1035 15.2051 15.8887L15.9473 10.5957C16.0547 10.6055 16.1621 10.625 16.2695 10.625C17.5879 10.625 18.6523 9.55078 18.6523 8.23242C18.6523 6.9043 17.5879 5.83008 16.2695 5.83008Z"
                      fill="url(#paint0_linear_8805_10347)"/>
            </g>
        </g>
        <path fill-rule="evenodd" clip-rule="evenodd"
              d="M33.123 25L32.323 23L27.677 23L26.877 25H25C24.4477 25 24 25.4477 24 26V32C24 32.5523 24.4477 33 25 33H35C35.5523 33 36 32.5523 36 32V26C36 25.4477 35.5523 25 35 25H33.123ZM26.2 24H25C23.8954 24 23 24.8954 23 26V32C23 33.1046 23.8954 34 25 34H35C36.1046 34 37 33.1046 37 32V26C37 24.8954 36.1046 24 35 24H33.8L33.2514 22.6286C33.0996 22.249 32.7319 22 32.323 22H27.677C27.2681 22 26.9004 22.249 26.7486 22.6286L26.2 24Z"
              fill="#6C707E"/>
        <circle cx="30" cy="28.75" r="2.5" stroke="#6C707E"/>
        <rect x="34" y="26" width="1" height="1" fill="#6C707E"/>
    </g>
    <defs>
        <linearGradient id="paint0_linear_8805_10347" x1="19.385" y1="38.3331" x2="19.0575" y2="0.464608"
                        gradientUnits="userSpaceOnUse">
            <stop stop-color="#FF433A"/>
            <stop offset="1" stop-color="#FF9436"/>
        </linearGradient>
        <clipPath id="clip0_8805_10347">
            <rect width="40" height="40" fill="white"/>
        </clipPath>
    </defs>
</svg>
